<?xml version="1.0" encoding="UTF-8" standalone="no"?>
<!DOCTYPE svg PUBLIC "-//W3C//DTD SVG 1.1//EN"
 "http://www.w3.org/Graphics/SVG/1.1/DTD/svg11.dtd">
<!-- Generated by graphviz version 2.44.1 (20200629.0846)
 -->
<!-- Pages: 1 -->
<svg width="834pt" height="260pt"
 viewBox="0.00 0.00 833.61 260.00" xmlns="http://www.w3.org/2000/svg" xmlns:xlink="http://www.w3.org/1999/xlink">
<g id="graph0" class="graph" transform="scale(1 1) rotate(0) translate(4 256)">
<polygon fill="white" stroke="transparent" points="-4,4 -4,-256 829.61,-256 829.61,4 -4,4"/>
<!-- [root] aws_default_subnet.web_subnet (expand) -->
<g id="node1" class="node">
<title>[root] aws_default_subnet.web_subnet (expand)</title>
<polygon fill="none" stroke="black" points="573.13,-108 381.13,-108 381.13,-72 573.13,-72 573.13,-108"/>
<text text-anchor="middle" x="477.13" y="-86.3" font-family="Times,serif" font-size="14.00">aws_default_subnet.web_subnet</text>
</g>
<!-- [root] provider[&quot;registry.terraform.io/hashicorp/aws&quot;] -->
<g id="node5" class="node">
<title>[root] provider[&quot;registry.terraform.io/hashicorp/aws&quot;]</title>
<polygon fill="none" stroke="black" points="377.13,-36 124.6,-18 377.13,0 629.67,-18 377.13,-36"/>
<text text-anchor="middle" x="377.13" y="-14.3" font-family="Times,serif" font-size="14.00">provider[&quot;registry.terraform.io/hashicorp/aws&quot;]</text>
</g>
<!-- [root] aws_default_subnet.web_subnet (expand)&#45;&gt;[root] provider[&quot;registry.terraform.io/hashicorp/aws&quot;] -->
<g id="edge1" class="edge">
<title>[root] aws_default_subnet.web_subnet (expand)&#45;&gt;[root] provider[&quot;registry.terraform.io/hashicorp/aws&quot;]</title>
<path fill="none" stroke="black" d="M452.67,-71.88C439.17,-62.42 422.27,-50.59 407.88,-40.52"/>
<polygon fill="black" stroke="black" points="409.5,-37.38 399.3,-34.51 405.48,-43.12 409.5,-37.38"/>
</g>
<!-- [root] aws_default_vpc.web_vpc (expand) -->
<g id="node2" class="node">
<title>[root] aws_default_vpc.web_vpc (expand)</title>
<polygon fill="none" stroke="black" points="752.63,-108 591.63,-108 591.63,-72 752.63,-72 752.63,-108"/>
<text text-anchor="middle" x="672.13" y="-86.3" font-family="Times,serif" font-size="14.00">aws_default_vpc.web_vpc</text>
</g>
<!-- [root] aws_default_vpc.web_vpc (expand)&#45;&gt;[root] provider[&quot;registry.terraform.io/hashicorp/aws&quot;] -->
<g id="edge2" class="edge">
<title>[root] aws_default_vpc.web_vpc (expand)&#45;&gt;[root] provider[&quot;registry.terraform.io/hashicorp/aws&quot;]</title>
<path fill="none" stroke="black" d="M600.35,-71.97C552.2,-60.54 489.29,-45.61 442.54,-34.52"/>
<polygon fill="black" stroke="black" points="443.06,-31.05 432.52,-32.14 441.44,-37.86 443.06,-31.05"/>
</g>
<!-- [root] aws_s3_bucket.web_s3 (expand) -->
<g id="node3" class="node">
<title>[root] aws_s3_bucket.web_s3 (expand)</title>
<polygon fill="none" stroke="black" points="175.13,-108 31.13,-108 31.13,-72 175.13,-72 175.13,-108"/>
<text text-anchor="middle" x="103.13" y="-86.3" font-family="Times,serif" font-size="14.00">aws_s3_bucket.web_s3</text>
</g>
<!-- [root] aws_s3_bucket.web_s3 (expand)&#45;&gt;[root] provider[&quot;registry.terraform.io/hashicorp/aws&quot;] -->
<g id="edge3" class="edge">
<title>[root] aws_s3_bucket.web_s3 (expand)&#45;&gt;[root] provider[&quot;registry.terraform.io/hashicorp/aws&quot;]</title>
<path fill="none" stroke="black" d="M169.81,-71.97C214.05,-60.66 271.7,-45.94 314.98,-34.88"/>
<polygon fill="black" stroke="black" points="316,-38.23 324.82,-32.37 314.26,-31.45 316,-38.23"/>
</g>
<!-- [root] aws_security_group.web_sg (expand) -->
<g id="node4" class="node">
<title>[root] aws_security_group.web_sg (expand)</title>
<polygon fill="none" stroke="black" points="363.13,-108 193.13,-108 193.13,-72 363.13,-72 363.13,-108"/>
<text text-anchor="middle" x="278.13" y="-86.3" font-family="Times,serif" font-size="14.00">aws_security_group.web_sg</text>
</g>
<!-- [root] aws_security_group.web_sg (expand)&#45;&gt;[root] provider[&quot;registry.terraform.io/hashicorp/aws&quot;] -->
<g id="edge4" class="edge">
<title>[root] aws_security_group.web_sg (expand)&#45;&gt;[root] provider[&quot;registry.terraform.io/hashicorp/aws&quot;]</title>
<path fill="none" stroke="black" d="M302.35,-71.88C315.72,-62.42 332.45,-50.59 346.7,-40.52"/>
<polygon fill="black" stroke="black" points="349.05,-43.15 355.19,-34.51 345.01,-37.43 349.05,-43.15"/>
</g>
<!-- [root] meta.count&#45;boundary (EachMode fixup) -->
<g id="node6" class="node">
<title>[root] meta.count&#45;boundary (EachMode fixup)</title>
<ellipse fill="none" stroke="black" cx="176.13" cy="-162" rx="176.27" ry="18"/>
<text text-anchor="middle" x="176.13" y="-158.3" font-family="Times,serif" font-size="14.00">[root] meta.count&#45;boundary (EachMode fixup)</text>
</g>
<!-- [root] meta.count&#45;boundary (EachMode fixup)&#45;&gt;[root] aws_default_subnet.web_subnet (expand) -->
<g id="edge5" class="edge">
<title>[root] meta.count&#45;boundary (EachMode fixup)&#45;&gt;[root] aws_default_subnet.web_subnet (expand)</title>
<path fill="none" stroke="black" d="M243.68,-145.29C288.19,-134.94 346.76,-121.32 394.1,-110.31"/>
<polygon fill="black" stroke="black" points="395.07,-113.68 404.02,-108 393.49,-106.86 395.07,-113.68"/>
</g>
<!-- [root] meta.count&#45;boundary (EachMode fixup)&#45;&gt;[root] aws_default_vpc.web_vpc (expand) -->
<g id="edge6" class="edge">
<title>[root] meta.count&#45;boundary (EachMode fixup)&#45;&gt;[root] aws_default_vpc.web_vpc (expand)</title>
<path fill="none" stroke="black" d="M288.4,-148.09C367.49,-138.58 476.12,-124.69 581.07,-108.12"/>
<polygon fill="black" stroke="black" points="581.89,-111.54 591.22,-106.51 580.79,-104.62 581.89,-111.54"/>
</g>
<!-- [root] meta.count&#45;boundary (EachMode fixup)&#45;&gt;[root] aws_s3_bucket.web_s3 (expand) -->
<g id="edge7" class="edge">
<title>[root] meta.count&#45;boundary (EachMode fixup)&#45;&gt;[root] aws_s3_bucket.web_s3 (expand)</title>
<path fill="none" stroke="black" d="M158.46,-144.05C149.38,-135.35 138.17,-124.59 128.21,-115.04"/>
<polygon fill="black" stroke="black" points="130.54,-112.43 120.9,-108.03 125.69,-117.48 130.54,-112.43"/>
</g>
<!-- [root] meta.count&#45;boundary (EachMode fixup)&#45;&gt;[root] aws_security_group.web_sg (expand) -->
<g id="edge8" class="edge">
<title>[root] meta.count&#45;boundary (EachMode fixup)&#45;&gt;[root] aws_security_group.web_sg (expand)</title>
<path fill="none" stroke="black" d="M200.83,-144.05C214.01,-135.01 230.42,-123.74 244.73,-113.93"/>
<polygon fill="black" stroke="black" points="247.05,-116.58 253.32,-108.03 243.09,-110.8 247.05,-116.58"/>
</g>
<!-- [root] provider[&quot;registry.terraform.io/hashicorp/aws&quot;] (close) -->
<g id="node7" class="node">
<title>[root] provider[&quot;registry.terraform.io/hashicorp/aws&quot;] (close)</title>
<ellipse fill="none" stroke="black" cx="598.13" cy="-162" rx="227.46" ry="18"/>
<text text-anchor="middle" x="598.13" y="-158.3" font-family="Times,serif" font-size="14.00">[root] provider[&quot;registry.terraform.io/hashicorp/aws&quot;] (close)</text>
</g>
<!-- [root] provider[&quot;registry.terraform.io/hashicorp/aws&quot;] (close)&#45;&gt;[root] aws_default_subnet.web_subnet (expand) -->
<g id="edge9" class="edge">
<title>[root] provider[&quot;registry.terraform.io/hashicorp/aws&quot;] (close)&#45;&gt;[root] aws_default_subnet.web_subnet (expand)</title>
<path fill="none" stroke="black" d="M568.84,-144.05C552.76,-134.75 532.63,-123.11 515.33,-113.1"/>
<polygon fill="black" stroke="black" points="516.98,-110.01 506.57,-108.03 513.48,-116.07 516.98,-110.01"/>
</g>
<!-- [root] provider[&quot;registry.terraform.io/hashicorp/aws&quot;] (close)&#45;&gt;[root] aws_default_vpc.web_vpc (expand) -->
<g id="edge10" class="edge">
<title>[root] provider[&quot;registry.terraform.io/hashicorp/aws&quot;] (close)&#45;&gt;[root] aws_default_vpc.web_vpc (expand)</title>
<path fill="none" stroke="black" d="M616.05,-144.05C625.25,-135.35 636.62,-124.59 646.72,-115.04"/>
<polygon fill="black" stroke="black" points="649.27,-117.45 654.13,-108.03 644.46,-112.36 649.27,-117.45"/>
</g>
<!-- [root] provider[&quot;registry.terraform.io/hashicorp/aws&quot;] (close)&#45;&gt;[root] aws_s3_bucket.web_s3 (expand) -->
<g id="edge11" class="edge">
<title>[root] provider[&quot;registry.terraform.io/hashicorp/aws&quot;] (close)&#45;&gt;[root] aws_s3_bucket.web_s3 (expand)</title>
<path fill="none" stroke="black" d="M469.07,-147.15C389.84,-138.01 286.1,-124.91 185.54,-108.17"/>
<polygon fill="black" stroke="black" points="185.95,-104.69 175.5,-106.49 184.79,-111.59 185.95,-104.69"/>
</g>
<!-- [root] provider[&quot;registry.terraform.io/hashicorp/aws&quot;] (close)&#45;&gt;[root] aws_security_group.web_sg (expand) -->
<g id="edge12" class="edge">
<title>[root] provider[&quot;registry.terraform.io/hashicorp/aws&quot;] (close)&#45;&gt;[root] aws_security_group.web_sg (expand)</title>
<path fill="none" stroke="black" d="M524.72,-144.94C477.41,-134.59 415.64,-121.08 365.76,-110.17"/>
<polygon fill="black" stroke="black" points="366.47,-106.74 355.95,-108.02 364.97,-113.58 366.47,-106.74"/>
</g>
<!-- [root] root -->
<g id="node8" class="node">
<title>[root] root</title>
<ellipse fill="none" stroke="black" cx="387.13" cy="-234" rx="47.39" ry="18"/>
<text text-anchor="middle" x="387.13" y="-230.3" font-family="Times,serif" font-size="14.00">[root] root</text>
</g>
<!-- [root] root&#45;&gt;[root] meta.count&#45;boundary (EachMode fixup) -->
<g id="edge13" class="edge">
<title>[root] root&#45;&gt;[root] meta.count&#45;boundary (EachMode fixup)</title>
<path fill="none" stroke="black" d="M352.29,-221.44C320.49,-210.89 272.83,-195.08 235.1,-182.56"/>
<polygon fill="black" stroke="black" points="235.83,-179.12 225.24,-179.29 233.63,-185.76 235.83,-179.12"/>
</g>
<!-- [root] root&#45;&gt;[root] provider[&quot;registry.terraform.io/hashicorp/aws&quot;] (close) -->
<g id="edge14" class="edge">
<title>[root] root&#45;&gt;[root] provider[&quot;registry.terraform.io/hashicorp/aws&quot;] (close)</title>
<path fill="none" stroke="black" d="M421.98,-221.44C453.46,-211 500.48,-195.4 538.02,-182.94"/>
<polygon fill="black" stroke="black" points="539.45,-186.16 547.84,-179.68 537.25,-179.51 539.45,-186.16"/>
</g>
</g>
</svg>
